<svg xmlns="http://www.w3.org/2000/svg" width="480" height="680" viewBox="0 0 480 680">
<defs>
<g id="wheel">
  <circle r="10.4" stroke-dasharray="0.1 2.55"/>
  <circle r="3.6"/>
  <circle r="0.9"/>
  <path d="M3.8 0 8.2 0M3.29 1.9 7.1 4.1M1.9 3.29 4.1 7.1M0 3.8 0 8.2M-1.9 3.29 -4.1 7.1M-3.29 1.9 -7.1 4.1M-3.8 0 -8.2 0M-3.29 -1.9 -7.1 -4.1M-1.9 -3.29 -4.1 -7.1M0 -3.8 0 -8.2M1.9 -3.29 4.1 -7.1M3.29 -1.9 7.1 -4.1"/>
</g>
<g id="conch">
  <path d="M-8 7Q-10.5 -2 -3 -8.5Q5.5 -13.5 10 -4.5Q12.5 1 5.5 5.6Q1 8.7 -8 7Z"/>
  <path d="M2.6 5Q8.4 3.6 8.4 -1.6Q8.4 -6 3.6 -6Q0 -6 0.9 -2Q1.5 1 4.3 -0.4"/>
  <path d="M-8 7Q-11.5 8.6 -13.6 7"/>
  <path d="M-4.5 4.6Q-2 2.8 0 4.2"/>
</g>
<g id="flute">
  <g transform="rotate(-32)">
    <rect x="-16" y="-2.2" width="32" height="4.4" rx="2.2"/>
    <path d="M-11 -2.2V2.2M11 -2.2V2.2"/>
    <circle cx="-5" r="0.85"/><circle cx="0" r="0.85"/><circle cx="5" r="0.85"/>
    <path d="M16 -2Q20.5 -3.6 18.8 0Q20.5 3.6 16 2"/>
    <path d="M18.4 1.6 22.6 5.2M18.4 1.6 20.4 5.6"/>
  </g>
</g>
<g id="feather">
  <path d="M-9 11Q-3 2 4.5 -8"/>
  <path d="M4.5 -8Q1 -16.5 7.2 -18Q14 -16.4 11 -8Q9 -3 4.5 -8Z"/>
  <circle cx="7.6" cy="-11.6" r="2.4"/>
  <path d="M7.6 -11.6V-17.4"/>
  <path d="M-4.6 4.2Q-6.8 3.4 -8 3.9M-1.4 -1.2Q-3.6 -2.2 -4.8 -1.6M1.6 -5.2Q0 -6.8 -1.2 -6.4"/>
</g>
<g id="lotus">
  <path d="M0 6C-2.4 -2 -2.4 -8 0 -12.5C2.4 -8 2.4 -2 0 6Z"/>
  <path d="M-0.5 6C-4.4 0.5 -6.6 -3 -8 -8.5C-3.6 -5 -1.6 -1 0.6 5"/>
  <path d="M0.5 6C4.4 0.5 6.6 -3 8 -8.5C3.6 -5 1.6 -1 -0.6 5"/>
  <path d="M-1.5 6C-7.4 3 -11 1 -13.2 -3.2C-11 4.4 -6 6.4 -1 5.6"/>
  <path d="M1.5 6C7.4 3 11 1 13.2 -3.2C11 4.4 6 6.4 1 5.6"/>
  <path d="M-8.6 5.2Q0 9.6 8.6 5.2"/>
</g>
<g id="temple">
  <path d="M0 -22.5V-19.5"/>
  <path d="M0 -21.6 5 -20 0 -18.4"/>
  <path d="M0 -18.4L-6.2 -3H6.2Z"/>
  <path d="M-2.7 -8.4H2.7M-4.4 -3.4H4.4"/>
  <path d="M-8 -3H8V13.5H-8Z"/>
  <path d="M-3 13.5V4.5Q0 -0.4 3 4.5V13.5"/>
  <path d="M-8 3H8"/>
  <path d="M-9.6 13.5H9.6"/>
</g>
<g id="leaf">
  <path d="M0 13V-13.5"/>
  <path d="M0 7.5Q4.6 6 6.6 1.5Q2 2 0 6"/>
  <path d="M0 7.5Q-4.6 6 -6.6 1.5Q-2 2 0 6"/>
  <path d="M0 2Q4.3 0.5 6.1 -4.2Q1.8 -3.7 0 0.4"/>
  <path d="M0 2Q-4.3 0.5 -6.1 -4.2Q-1.8 -3.7 0 0.4"/>
  <path d="M0 -3.6Q3.8 -5.1 5.4 -9.6Q1.4 -9.1 0 -5.2"/>
  <path d="M0 -3.6Q-3.8 -5.1 -5.4 -9.6Q-1.4 -9.1 0 -5.2"/>
  <path d="M0 -9Q2.4 -11 0 -14.4Q-2.4 -11 0 -9"/>
</g>
<g id="diya">
  <path d="M-8 0.4Q0 8 8 0.4Q8 3.4 0 3.8Q-8 3.4 -8 0.4Z"/>
  <path d="M8 0.4Q11.6 -0.6 10.2 1.8"/>
  <path d="M1.6 -1C4.2 -4 3.6 -8 1.6 -11.2C-0.4 -8 -1 -4 1.6 -1Z"/>
</g>
<g id="quatre">
  <path d="M0 0Q-2.6 -1.4 -2.6 -4.4Q0 -5.8 2.6 -4.4Q2.6 -1.4 0 0"/>
  <path d="M0 0Q1.4 -2.6 4.4 -2.6Q5.8 0 4.4 2.6Q1.4 2.6 0 0"/>
  <path d="M0 0Q2.6 1.4 2.6 4.4Q0 5.8 -2.6 4.4Q-2.6 1.4 0 0"/>
  <path d="M0 0Q-1.4 2.6 -4.4 2.6Q-5.8 0 -4.4 -2.6Q-1.4 -2.6 0 0"/>
</g>
<g id="ring"><circle r="3"/></g>
<g id="dot"><circle r="1.4" fill="#c69a56" stroke="none"/></g>
</defs>
<g fill="none" stroke="#c69a56" stroke-width="1.1" stroke-linecap="round" stroke-linejoin="round" opacity="0.82">
  <!-- band 1 -->
  <use href="#wheel" transform="translate(54 62)"/>
  <text x="176" y="62" font-size="26" font-family="Georgia,'Noto Serif',serif" text-anchor="middle" stroke="none" fill="#c69a56">&#2384;</text>
  <use href="#quatre" transform="translate(300 58)"/>
  <use href="#ring" transform="translate(436 60)"/>
  <use href="#dot" transform="translate(116 98)"/>
  <use href="#dot" transform="translate(238 96)"/>
  <use href="#ring" transform="translate(362 104)"/>
  <!-- band 2 -->
  <use href="#conch" transform="translate(62 154)"/>
  <use href="#leaf" transform="translate(190 152) rotate(8)"/>
  <use href="#flute" transform="translate(304 156)"/>
  <use href="#lotus" transform="translate(432 152)"/>
  <use href="#dot" transform="translate(122 204)"/>
  <use href="#ring" transform="translate(250 208)"/>
  <use href="#dot" transform="translate(364 212)"/>
  <use href="#dot" transform="translate(24 208)"/>
  <!-- band 3 -->
  <use href="#diya" transform="translate(52 262)"/>
  <text x="184" y="270" font-size="20" font-family="Georgia,'Noto Serif',serif" text-anchor="middle" stroke="none" fill="#c69a56">&#2384;</text>
  <use href="#temple" transform="translate(306 258)"/>
  <use href="#wheel" transform="translate(434 264)"/>
  <use href="#quatre" transform="translate(122 306)"/>
  <use href="#dot" transform="translate(242 302)"/>
  <use href="#ring" transform="translate(398 310)"/>
  <use href="#dot" transform="translate(20 300)"/>
  <!-- band 4 -->
  <use href="#lotus" transform="translate(62 368)"/>
  <use href="#wheel" transform="translate(186 368)"/>
  <use href="#leaf" transform="translate(306 362) rotate(-10)"/>
  <use href="#conch" transform="translate(432 368)"/>
  <use href="#ring" transform="translate(120 416)"/>
  <use href="#dot" transform="translate(250 414)"/>
  <use href="#dot" transform="translate(30 420)"/>
  <use href="#dot" transform="translate(362 420)"/>
  <!-- band 5 -->
  <use href="#leaf" transform="translate(54 476) rotate(7)"/>
  <use href="#temple" transform="translate(188 476)"/>
  <text x="304" y="490" font-size="24" font-family="Georgia,'Noto Serif',serif" text-anchor="middle" stroke="none" fill="#c69a56">&#2384;</text>
  <use href="#feather" transform="translate(434 472)"/>
  <use href="#dot" transform="translate(122 522)"/>
  <use href="#ring" transform="translate(362 518)"/>
  <use href="#dot" transform="translate(244 526)"/>
  <!-- band 6 -->
  <use href="#conch" transform="translate(64 584)"/>
  <use href="#lotus" transform="translate(186 584)"/>
  <use href="#quatre" transform="translate(306 580)"/>
  <use href="#wheel" transform="translate(432 584)"/>
  <use href="#ring" transform="translate(120 628)"/>
  <use href="#dot" transform="translate(250 622)"/>
  <use href="#dot" transform="translate(362 630)"/>
  <use href="#dot" transform="translate(24 622)"/>
  <!-- band 7 (edge) -->
  <use href="#diya" transform="translate(54 660)"/>
  <text x="182" y="666" font-size="20" font-family="Georgia,'Noto Serif',serif" text-anchor="middle" stroke="none" fill="#c69a56">&#2384;</text>
  <use href="#leaf" transform="translate(306 662) rotate(-6)"/>
  <use href="#feather" transform="translate(432 656)"/>
</g>
</svg>
