<svg xmlns="http://www.w3.org/2000/svg" width="440" height="440" viewBox="0 0 440 440"><g fill="none" stroke="#a6612e" stroke-width="1.1" stroke-linecap="round" stroke-linejoin="round" opacity="0.4"><g transform="translate(220 220)"><circle r="6" fill="#a6612e"/><circle r="11" fill="none"/><circle r="36" fill="none"/><circle r="62" fill="none"/><circle r="66" fill="none"/><circle r="98" fill="none"/><g transform="rotate(0)"><path d="M0 -11C4 -20 4 -28 0 -34C-4 -28 -4 -20 0 -11Z"/></g><g transform="rotate(30)"><path d="M0 -11C4 -20 4 -28 0 -34C-4 -28 -4 -20 0 -11Z"/></g><g transform="rotate(60)"><path d="M0 -11C4 -20 4 -28 0 -34C-4 -28 -4 -20 0 -11Z"/></g><g transform="rotate(90)"><path d="M0 -11C4 -20 4 -28 0 -34C-4 -28 -4 -20 0 -11Z"/></g><g transform="rotate(120)"><path d="M0 -11C4 -20 4 -28 0 -34C-4 -28 -4 -20 0 -11Z"/></g><g transform="rotate(150)"><path d="M0 -11C4 -20 4 -28 0 -34C-4 -28 -4 -20 0 -11Z"/></g><g transform="rotate(180)"><path d="M0 -11C4 -20 4 -28 0 -34C-4 -28 -4 -20 0 -11Z"/></g><g transform="rotate(210)"><path d="M0 -11C4 -20 4 -28 0 -34C-4 -28 -4 -20 0 -11Z"/></g><g transform="rotate(240)"><path d="M0 -11C4 -20 4 -28 0 -34C-4 -28 -4 -20 0 -11Z"/></g><g transform="rotate(270)"><path d="M0 -11C4 -20 4 -28 0 -34C-4 -28 -4 -20 0 -11Z"/></g><g transform="rotate(300)"><path d="M0 -11C4 -20 4 -28 0 -34C-4 -28 -4 -20 0 -11Z"/></g><g transform="rotate(330)"><path d="M0 -11C4 -20 4 -28 0 -34C-4 -28 -4 -20 0 -11Z"/></g><g transform="rotate(15)"><path d="M0 -36C7 -44 7 -54 0 -60C-7 -54 -7 -44 0 -36Z"/><path d="M0 -39V-57"/></g><g transform="rotate(45)"><path d="M0 -36C7 -44 7 -54 0 -60C-7 -54 -7 -44 0 -36Z"/><path d="M0 -39V-57"/></g><g transform="rotate(75)"><path d="M0 -36C7 -44 7 -54 0 -60C-7 -54 -7 -44 0 -36Z"/><path d="M0 -39V-57"/></g><g transform="rotate(105)"><path d="M0 -36C7 -44 7 -54 0 -60C-7 -54 -7 -44 0 -36Z"/><path d="M0 -39V-57"/></g><g transform="rotate(135)"><path d="M0 -36C7 -44 7 -54 0 -60C-7 -54 -7 -44 0 -36Z"/><path d="M0 -39V-57"/></g><g transform="rotate(165)"><path d="M0 -36C7 -44 7 -54 0 -60C-7 -54 -7 -44 0 -36Z"/><path d="M0 -39V-57"/></g><g transform="rotate(195)"><path d="M0 -36C7 -44 7 -54 0 -60C-7 -54 -7 -44 0 -36Z"/><path d="M0 -39V-57"/></g><g transform="rotate(225)"><path d="M0 -36C7 -44 7 -54 0 -60C-7 -54 -7 -44 0 -36Z"/><path d="M0 -39V-57"/></g><g transform="rotate(255)"><path d="M0 -36C7 -44 7 -54 0 -60C-7 -54 -7 -44 0 -36Z"/><path d="M0 -39V-57"/></g><g transform="rotate(285)"><path d="M0 -36C7 -44 7 -54 0 -60C-7 -54 -7 -44 0 -36Z"/><path d="M0 -39V-57"/></g><g transform="rotate(315)"><path d="M0 -36C7 -44 7 -54 0 -60C-7 -54 -7 -44 0 -36Z"/><path d="M0 -39V-57"/></g><g transform="rotate(345)"><path d="M0 -36C7 -44 7 -54 0 -60C-7 -54 -7 -44 0 -36Z"/><path d="M0 -39V-57"/></g><g transform="rotate(0.0)"><path d="M0 -66C4.5 -72 4.5 -81 0 -86C-4.5 -81 -4.5 -72 0 -66Z" fill="#7a3b1e" stroke="none"/><path d="M0 -69C2.5 -73 2.5 -80 0 -83C-2.5 -80 -2.5 -73 0 -69Z" fill="none" stroke="#fbeede" stroke-width="0.8"/></g><g transform="rotate(22.5)"><path d="M0 -66C4.5 -72 4.5 -81 0 -86C-4.5 -81 -4.5 -72 0 -66Z" fill="#7a3b1e" stroke="none"/><path d="M0 -69C2.5 -73 2.5 -80 0 -83C-2.5 -80 -2.5 -73 0 -69Z" fill="none" stroke="#fbeede" stroke-width="0.8"/></g><g transform="rotate(45.0)"><path d="M0 -66C4.5 -72 4.5 -81 0 -86C-4.5 -81 -4.5 -72 0 -66Z" fill="#7a3b1e" stroke="none"/><path d="M0 -69C2.5 -73 2.5 -80 0 -83C-2.5 -80 -2.5 -73 0 -69Z" fill="none" stroke="#fbeede" stroke-width="0.8"/></g><g transform="rotate(67.5)"><path d="M0 -66C4.5 -72 4.5 -81 0 -86C-4.5 -81 -4.5 -72 0 -66Z" fill="#7a3b1e" stroke="none"/><path d="M0 -69C2.5 -73 2.5 -80 0 -83C-2.5 -80 -2.5 -73 0 -69Z" fill="none" stroke="#fbeede" stroke-width="0.8"/></g><g transform="rotate(90.0)"><path d="M0 -66C4.5 -72 4.5 -81 0 -86C-4.5 -81 -4.5 -72 0 -66Z" fill="#7a3b1e" stroke="none"/><path d="M0 -69C2.5 -73 2.5 -80 0 -83C-2.5 -80 -2.5 -73 0 -69Z" fill="none" stroke="#fbeede" stroke-width="0.8"/></g><g transform="rotate(112.5)"><path d="M0 -66C4.5 -72 4.5 -81 0 -86C-4.5 -81 -4.5 -72 0 -66Z" fill="#7a3b1e" stroke="none"/><path d="M0 -69C2.5 -73 2.5 -80 0 -83C-2.5 -80 -2.5 -73 0 -69Z" fill="none" stroke="#fbeede" stroke-width="0.8"/></g><g transform="rotate(135.0)"><path d="M0 -66C4.5 -72 4.5 -81 0 -86C-4.5 -81 -4.5 -72 0 -66Z" fill="#7a3b1e" stroke="none"/><path d="M0 -69C2.5 -73 2.5 -80 0 -83C-2.5 -80 -2.5 -73 0 -69Z" fill="none" stroke="#fbeede" stroke-width="0.8"/></g><g transform="rotate(157.5)"><path d="M0 -66C4.5 -72 4.5 -81 0 -86C-4.5 -81 -4.5 -72 0 -66Z" fill="#7a3b1e" stroke="none"/><path d="M0 -69C2.5 -73 2.5 -80 0 -83C-2.5 -80 -2.5 -73 0 -69Z" fill="none" stroke="#fbeede" stroke-width="0.8"/></g><g transform="rotate(180.0)"><path d="M0 -66C4.5 -72 4.5 -81 0 -86C-4.5 -81 -4.5 -72 0 -66Z" fill="#7a3b1e" stroke="none"/><path d="M0 -69C2.5 -73 2.5 -80 0 -83C-2.5 -80 -2.5 -73 0 -69Z" fill="none" stroke="#fbeede" stroke-width="0.8"/></g><g transform="rotate(202.5)"><path d="M0 -66C4.5 -72 4.5 -81 0 -86C-4.5 -81 -4.5 -72 0 -66Z" fill="#7a3b1e" stroke="none"/><path d="M0 -69C2.5 -73 2.5 -80 0 -83C-2.5 -80 -2.5 -73 0 -69Z" fill="none" stroke="#fbeede" stroke-width="0.8"/></g><g transform="rotate(225.0)"><path d="M0 -66C4.5 -72 4.5 -81 0 -86C-4.5 -81 -4.5 -72 0 -66Z" fill="#7a3b1e" stroke="none"/><path d="M0 -69C2.5 -73 2.5 -80 0 -83C-2.5 -80 -2.5 -73 0 -69Z" fill="none" stroke="#fbeede" stroke-width="0.8"/></g><g transform="rotate(247.5)"><path d="M0 -66C4.5 -72 4.5 -81 0 -86C-4.5 -81 -4.5 -72 0 -66Z" fill="#7a3b1e" stroke="none"/><path d="M0 -69C2.5 -73 2.5 -80 0 -83C-2.5 -80 -2.5 -73 0 -69Z" fill="none" stroke="#fbeede" stroke-width="0.8"/></g><g transform="rotate(270.0)"><path d="M0 -66C4.5 -72 4.5 -81 0 -86C-4.5 -81 -4.5 -72 0 -66Z" fill="#7a3b1e" stroke="none"/><path d="M0 -69C2.5 -73 2.5 -80 0 -83C-2.5 -80 -2.5 -73 0 -69Z" fill="none" stroke="#fbeede" stroke-width="0.8"/></g><g transform="rotate(292.5)"><path d="M0 -66C4.5 -72 4.5 -81 0 -86C-4.5 -81 -4.5 -72 0 -66Z" fill="#7a3b1e" stroke="none"/><path d="M0 -69C2.5 -73 2.5 -80 0 -83C-2.5 -80 -2.5 -73 0 -69Z" fill="none" stroke="#fbeede" stroke-width="0.8"/></g><g transform="rotate(315.0)"><path d="M0 -66C4.5 -72 4.5 -81 0 -86C-4.5 -81 -4.5 -72 0 -66Z" fill="#7a3b1e" stroke="none"/><path d="M0 -69C2.5 -73 2.5 -80 0 -83C-2.5 -80 -2.5 -73 0 -69Z" fill="none" stroke="#fbeede" stroke-width="0.8"/></g><g transform="rotate(337.5)"><path d="M0 -66C4.5 -72 4.5 -81 0 -86C-4.5 -81 -4.5 -72 0 -66Z" fill="#7a3b1e" stroke="none"/><path d="M0 -69C2.5 -73 2.5 -80 0 -83C-2.5 -80 -2.5 -73 0 -69Z" fill="none" stroke="#fbeede" stroke-width="0.8"/></g><g transform="rotate(11.25)"><circle cy="-91" r="2.3" fill="#7a3b1e" stroke="none"/></g><g transform="rotate(33.75)"><circle cy="-91" r="2.3" fill="#7a3b1e" stroke="none"/></g><g transform="rotate(56.25)"><circle cy="-91" r="2.3" fill="#7a3b1e" stroke="none"/></g><g transform="rotate(78.75)"><circle cy="-91" r="2.3" fill="#7a3b1e" stroke="none"/></g><g transform="rotate(101.25)"><circle cy="-91" r="2.3" fill="#7a3b1e" stroke="none"/></g><g transform="rotate(123.75)"><circle cy="-91" r="2.3" fill="#7a3b1e" stroke="none"/></g><g transform="rotate(146.25)"><circle cy="-91" r="2.3" fill="#7a3b1e" stroke="none"/></g><g transform="rotate(168.75)"><circle cy="-91" r="2.3" fill="#7a3b1e" stroke="none"/></g><g transform="rotate(191.25)"><circle cy="-91" r="2.3" fill="#7a3b1e" stroke="none"/></g><g transform="rotate(213.75)"><circle cy="-91" r="2.3" fill="#7a3b1e" stroke="none"/></g><g transform="rotate(236.25)"><circle cy="-91" r="2.3" fill="#7a3b1e" stroke="none"/></g><g transform="rotate(258.75)"><circle cy="-91" r="2.3" fill="#7a3b1e" stroke="none"/></g><g transform="rotate(281.25)"><circle cy="-91" r="2.3" fill="#7a3b1e" stroke="none"/></g><g transform="rotate(303.75)"><circle cy="-91" r="2.3" fill="#7a3b1e" stroke="none"/></g><g transform="rotate(326.25)"><circle cy="-91" r="2.3" fill="#7a3b1e" stroke="none"/></g><g transform="rotate(348.75)"><circle cy="-91" r="2.3" fill="#7a3b1e" stroke="none"/></g></g><g transform="translate(0 0)"><circle r="6" fill="#a6612e"/><circle r="11" fill="none"/><circle r="36" fill="none"/><circle r="62" fill="none"/><circle r="66" fill="none"/><circle r="98" fill="none"/><g transform="rotate(0)"><path d="M0 -11C4 -20 4 -28 0 -34C-4 -28 -4 -20 0 -11Z"/></g><g transform="rotate(30)"><path d="M0 -11C4 -20 4 -28 0 -34C-4 -28 -4 -20 0 -11Z"/></g><g transform="rotate(60)"><path d="M0 -11C4 -20 4 -28 0 -34C-4 -28 -4 -20 0 -11Z"/></g><g transform="rotate(90)"><path d="M0 -11C4 -20 4 -28 0 -34C-4 -28 -4 -20 0 -11Z"/></g><g transform="rotate(120)"><path d="M0 -11C4 -20 4 -28 0 -34C-4 -28 -4 -20 0 -11Z"/></g><g transform="rotate(150)"><path d="M0 -11C4 -20 4 -28 0 -34C-4 -28 -4 -20 0 -11Z"/></g><g transform="rotate(180)"><path d="M0 -11C4 -20 4 -28 0 -34C-4 -28 -4 -20 0 -11Z"/></g><g transform="rotate(210)"><path d="M0 -11C4 -20 4 -28 0 -34C-4 -28 -4 -20 0 -11Z"/></g><g transform="rotate(240)"><path d="M0 -11C4 -20 4 -28 0 -34C-4 -28 -4 -20 0 -11Z"/></g><g transform="rotate(270)"><path d="M0 -11C4 -20 4 -28 0 -34C-4 -28 -4 -20 0 -11Z"/></g><g transform="rotate(300)"><path d="M0 -11C4 -20 4 -28 0 -34C-4 -28 -4 -20 0 -11Z"/></g><g transform="rotate(330)"><path d="M0 -11C4 -20 4 -28 0 -34C-4 -28 -4 -20 0 -11Z"/></g><g transform="rotate(15)"><path d="M0 -36C7 -44 7 -54 0 -60C-7 -54 -7 -44 0 -36Z"/><path d="M0 -39V-57"/></g><g transform="rotate(45)"><path d="M0 -36C7 -44 7 -54 0 -60C-7 -54 -7 -44 0 -36Z"/><path d="M0 -39V-57"/></g><g transform="rotate(75)"><path d="M0 -36C7 -44 7 -54 0 -60C-7 -54 -7 -44 0 -36Z"/><path d="M0 -39V-57"/></g><g transform="rotate(105)"><path d="M0 -36C7 -44 7 -54 0 -60C-7 -54 -7 -44 0 -36Z"/><path d="M0 -39V-57"/></g><g transform="rotate(135)"><path d="M0 -36C7 -44 7 -54 0 -60C-7 -54 -7 -44 0 -36Z"/><path d="M0 -39V-57"/></g><g transform="rotate(165)"><path d="M0 -36C7 -44 7 -54 0 -60C-7 -54 -7 -44 0 -36Z"/><path d="M0 -39V-57"/></g><g transform="rotate(195)"><path d="M0 -36C7 -44 7 -54 0 -60C-7 -54 -7 -44 0 -36Z"/><path d="M0 -39V-57"/></g><g transform="rotate(225)"><path d="M0 -36C7 -44 7 -54 0 -60C-7 -54 -7 -44 0 -36Z"/><path d="M0 -39V-57"/></g><g transform="rotate(255)"><path d="M0 -36C7 -44 7 -54 0 -60C-7 -54 -7 -44 0 -36Z"/><path d="M0 -39V-57"/></g><g transform="rotate(285)"><path d="M0 -36C7 -44 7 -54 0 -60C-7 -54 -7 -44 0 -36Z"/><path d="M0 -39V-57"/></g><g transform="rotate(315)"><path d="M0 -36C7 -44 7 -54 0 -60C-7 -54 -7 -44 0 -36Z"/><path d="M0 -39V-57"/></g><g transform="rotate(345)"><path d="M0 -36C7 -44 7 -54 0 -60C-7 -54 -7 -44 0 -36Z"/><path d="M0 -39V-57"/></g><g transform="rotate(0.0)"><path d="M0 -66C4.5 -72 4.5 -81 0 -86C-4.5 -81 -4.5 -72 0 -66Z" fill="#7a3b1e" stroke="none"/><path d="M0 -69C2.5 -73 2.5 -80 0 -83C-2.5 -80 -2.5 -73 0 -69Z" fill="none" stroke="#fbeede" stroke-width="0.8"/></g><g transform="rotate(22.5)"><path d="M0 -66C4.5 -72 4.5 -81 0 -86C-4.5 -81 -4.5 -72 0 -66Z" fill="#7a3b1e" stroke="none"/><path d="M0 -69C2.5 -73 2.5 -80 0 -83C-2.5 -80 -2.5 -73 0 -69Z" fill="none" stroke="#fbeede" stroke-width="0.8"/></g><g transform="rotate(45.0)"><path d="M0 -66C4.5 -72 4.5 -81 0 -86C-4.5 -81 -4.5 -72 0 -66Z" fill="#7a3b1e" stroke="none"/><path d="M0 -69C2.5 -73 2.5 -80 0 -83C-2.5 -80 -2.5 -73 0 -69Z" fill="none" stroke="#fbeede" stroke-width="0.8"/></g><g transform="rotate(67.5)"><path d="M0 -66C4.5 -72 4.5 -81 0 -86C-4.5 -81 -4.5 -72 0 -66Z" fill="#7a3b1e" stroke="none"/><path d="M0 -69C2.5 -73 2.5 -80 0 -83C-2.5 -80 -2.5 -73 0 -69Z" fill="none" stroke="#fbeede" stroke-width="0.8"/></g><g transform="rotate(90.0)"><path d="M0 -66C4.5 -72 4.5 -81 0 -86C-4.5 -81 -4.5 -72 0 -66Z" fill="#7a3b1e" stroke="none"/><path d="M0 -69C2.5 -73 2.5 -80 0 -83C-2.5 -80 -2.5 -73 0 -69Z" fill="none" stroke="#fbeede" stroke-width="0.8"/></g><g transform="rotate(112.5)"><path d="M0 -66C4.5 -72 4.5 -81 0 -86C-4.5 -81 -4.5 -72 0 -66Z" fill="#7a3b1e" stroke="none"/><path d="M0 -69C2.5 -73 2.5 -80 0 -83C-2.5 -80 -2.5 -73 0 -69Z" fill="none" stroke="#fbeede" stroke-width="0.8"/></g><g transform="rotate(135.0)"><path d="M0 -66C4.5 -72 4.5 -81 0 -86C-4.5 -81 -4.5 -72 0 -66Z" fill="#7a3b1e" stroke="none"/><path d="M0 -69C2.5 -73 2.5 -80 0 -83C-2.5 -80 -2.5 -73 0 -69Z" fill="none" stroke="#fbeede" stroke-width="0.8"/></g><g transform="rotate(157.5)"><path d="M0 -66C4.5 -72 4.5 -81 0 -86C-4.5 -81 -4.5 -72 0 -66Z" fill="#7a3b1e" stroke="none"/><path d="M0 -69C2.5 -73 2.5 -80 0 -83C-2.5 -80 -2.5 -73 0 -69Z" fill="none" stroke="#fbeede" stroke-width="0.8"/></g><g transform="rotate(180.0)"><path d="M0 -66C4.5 -72 4.5 -81 0 -86C-4.5 -81 -4.5 -72 0 -66Z" fill="#7a3b1e" stroke="none"/><path d="M0 -69C2.5 -73 2.5 -80 0 -83C-2.5 -80 -2.5 -73 0 -69Z" fill="none" stroke="#fbeede" stroke-width="0.8"/></g><g transform="rotate(202.5)"><path d="M0 -66C4.5 -72 4.5 -81 0 -86C-4.5 -81 -4.5 -72 0 -66Z" fill="#7a3b1e" stroke="none"/><path d="M0 -69C2.5 -73 2.5 -80 0 -83C-2.5 -80 -2.5 -73 0 -69Z" fill="none" stroke="#fbeede" stroke-width="0.8"/></g><g transform="rotate(225.0)"><path d="M0 -66C4.5 -72 4.5 -81 0 -86C-4.5 -81 -4.5 -72 0 -66Z" fill="#7a3b1e" stroke="none"/><path d="M0 -69C2.5 -73 2.5 -80 0 -83C-2.5 -80 -2.5 -73 0 -69Z" fill="none" stroke="#fbeede" stroke-width="0.8"/></g><g transform="rotate(247.5)"><path d="M0 -66C4.5 -72 4.5 -81 0 -86C-4.5 -81 -4.5 -72 0 -66Z" fill="#7a3b1e" stroke="none"/><path d="M0 -69C2.5 -73 2.5 -80 0 -83C-2.5 -80 -2.5 -73 0 -69Z" fill="none" stroke="#fbeede" stroke-width="0.8"/></g><g transform="rotate(270.0)"><path d="M0 -66C4.5 -72 4.5 -81 0 -86C-4.5 -81 -4.5 -72 0 -66Z" fill="#7a3b1e" stroke="none"/><path d="M0 -69C2.5 -73 2.5 -80 0 -83C-2.5 -80 -2.5 -73 0 -69Z" fill="none" stroke="#fbeede" stroke-width="0.8"/></g><g transform="rotate(292.5)"><path d="M0 -66C4.5 -72 4.5 -81 0 -86C-4.5 -81 -4.5 -72 0 -66Z" fill="#7a3b1e" stroke="none"/><path d="M0 -69C2.5 -73 2.5 -80 0 -83C-2.5 -80 -2.5 -73 0 -69Z" fill="none" stroke="#fbeede" stroke-width="0.8"/></g><g transform="rotate(315.0)"><path d="M0 -66C4.5 -72 4.5 -81 0 -86C-4.5 -81 -4.5 -72 0 -66Z" fill="#7a3b1e" stroke="none"/><path d="M0 -69C2.5 -73 2.5 -80 0 -83C-2.5 -80 -2.5 -73 0 -69Z" fill="none" stroke="#fbeede" stroke-width="0.8"/></g><g transform="rotate(337.5)"><path d="M0 -66C4.5 -72 4.5 -81 0 -86C-4.5 -81 -4.5 -72 0 -66Z" fill="#7a3b1e" stroke="none"/><path d="M0 -69C2.5 -73 2.5 -80 0 -83C-2.5 -80 -2.5 -73 0 -69Z" fill="none" stroke="#fbeede" stroke-width="0.8"/></g><g transform="rotate(11.25)"><circle cy="-91" r="2.3" fill="#7a3b1e" stroke="none"/></g><g transform="rotate(33.75)"><circle cy="-91" r="2.3" fill="#7a3b1e" stroke="none"/></g><g transform="rotate(56.25)"><circle cy="-91" r="2.3" fill="#7a3b1e" stroke="none"/></g><g transform="rotate(78.75)"><circle cy="-91" r="2.3" fill="#7a3b1e" stroke="none"/></g><g transform="rotate(101.25)"><circle cy="-91" r="2.3" fill="#7a3b1e" stroke="none"/></g><g transform="rotate(123.75)"><circle cy="-91" r="2.3" fill="#7a3b1e" stroke="none"/></g><g transform="rotate(146.25)"><circle cy="-91" r="2.3" fill="#7a3b1e" stroke="none"/></g><g transform="rotate(168.75)"><circle cy="-91" r="2.3" fill="#7a3b1e" stroke="none"/></g><g transform="rotate(191.25)"><circle cy="-91" r="2.3" fill="#7a3b1e" stroke="none"/></g><g transform="rotate(213.75)"><circle cy="-91" r="2.3" fill="#7a3b1e" stroke="none"/></g><g transform="rotate(236.25)"><circle cy="-91" r="2.3" fill="#7a3b1e" stroke="none"/></g><g transform="rotate(258.75)"><circle cy="-91" r="2.3" fill="#7a3b1e" stroke="none"/></g><g transform="rotate(281.25)"><circle cy="-91" r="2.3" fill="#7a3b1e" stroke="none"/></g><g transform="rotate(303.75)"><circle cy="-91" r="2.3" fill="#7a3b1e" stroke="none"/></g><g transform="rotate(326.25)"><circle cy="-91" r="2.3" fill="#7a3b1e" stroke="none"/></g><g transform="rotate(348.75)"><circle cy="-91" r="2.3" fill="#7a3b1e" stroke="none"/></g></g></g></svg>