<svg xmlns="http://www.w3.org/2000/svg" width="460" height="460" viewBox="0 0 460 460">
  <defs>
    <g id="lotus" fill="none">
      <path d="M0 2 C-4 -10 -13 -12 -17 -4 M0 2 C-2 -13 -7 -17 -10 -15 M0 2 C0 -15 0 -19 0 -20 M0 2 C2 -13 7 -17 10 -15 M0 2 C4 -10 13 -12 17 -4"/>
      <path d="M-14 3 Q0 9 14 3"/>
    </g>
    <g id="star" fill="none"><path d="M0 -9 C1 -3 3 -1 9 0 C3 1 1 3 0 9 C-1 3 -3 1 -9 0 C-3 -1 -1 -3 0 -9 Z"/></g>
    <g id="wheel" fill="none"><circle r="12"/><circle r="3"/><path d="M0 -12V12M-12 0H12M-8.5 -8.5L8.5 8.5M-8.5 8.5L8.5 -8.5"/></g>
    <g id="diya" fill="none"><path d="M-11 2 Q0 12 11 2 Q6 5 0 5 Q-6 5 -11 2 Z"/><path d="M0 2 Q4 -4 0 -12 Q-4 -4 0 2"/></g>
    <g id="kalash" fill="none"><path d="M-8 -2 Q-11 9 0 13 Q11 9 8 -2 Z"/><path d="M-7 -2 H7"/><path d="M-5 -2 Q-6 -7 0 -8 Q6 -7 5 -2"/><circle cx="0" cy="-11" r="3"/><path d="M-3 -9 Q-9 -13 -12 -8 M3 -9 Q9 -13 12 -8"/></g>
    <g id="flower" fill="none"><circle cx="0" cy="-6" r="3"/><circle cx="5.7" cy="-1.8" r="3"/><circle cx="3.5" cy="4.8" r="3"/><circle cx="-3.5" cy="4.8" r="3"/><circle cx="-5.7" cy="-1.8" r="3"/><circle r="1.8"/></g>
    <g id="leaf" fill="none"><path d="M0 8 Q9 -2 4 -14 Q-4 -8 0 8 Z"/><path d="M1 6 Q2 -4 3 -11"/></g>
    <g id="conch" fill="none"><path d="M6 8 Q14 2 8 -6 Q2 -12 -4 -7 Q-9 -3 -5 2 Q-2 5 1 3 Q3 1 1 -1"/></g>
    <g id="moon" fill="none"><path d="M4 -9 A9 9 0 1 0 4 9 A11 11 0 0 1 4 -9 Z"/></g>
    <g id="trishula" fill="none"><path d="M0 15V-14M0 -14L-3 -9M0 -14L3 -9M-7 -1V-11L-9 -8M-7 -11L-5 -8M7 -1V-11L9 -8M7 -11L5 -8M-7 -1Q0 4 7 -1"/></g>
    <g id="mandala" fill="none"><circle r="4"/><circle r="10"/><path d="M0 -10V-4M0 4V10M-10 0H-4M4 0H10M-7 -7L-3 -3M7 -7L3 -3M-7 7L-3 3M7 7L3 3"/></g>
    <g id="dot"><circle r="1.7"/></g>
  </defs>
  <g stroke="#c07f34" fill="#c07f34" stroke-width="1.3" stroke-linecap="round" stroke-linejoin="round" opacity="0.5">
    <use href="#lotus" transform="translate(58 62)"/>
    <use href="#star" transform="translate(150 44)"/>
    <use href="#conch" transform="translate(232 58)"/>
    <use href="#mandala" transform="translate(330 52)"/>
    <use href="#diya" transform="translate(418 78)"/>
    <use href="#dot" transform="translate(110 96)"/>
    <use href="#leaf" transform="translate(196 108) rotate(28)"/>
    <use href="#star" transform="translate(300 120)"/>
    <use href="#wheel" transform="translate(392 158)"/>
    <use href="#flower" transform="translate(62 150)"/>
    <use href="#kalash" transform="translate(150 176)"/>
    <use href="#dot" transform="translate(258 158)"/>
    <use href="#star" transform="translate(66 232)"/>
    <use href="#lotus" transform="translate(232 190) rotate(8) scale(0.9)"/>
    <use href="#conch" transform="translate(330 214)"/>
    <use href="#flower" transform="translate(420 240)"/>
    <use href="#dot" transform="translate(150 254)"/>
    <use href="#wheel" transform="translate(96 320)"/>
    <use href="#moon" transform="translate(196 300)"/>
    <use href="#star" transform="translate(288 296)"/>
    <use href="#leaf" transform="translate(372 316) rotate(-24)"/>
    <use href="#dot" transform="translate(430 350)"/>
    <use href="#diya" transform="translate(50 388)"/>
    <use href="#star" transform="translate(140 404)"/>
    <use href="#mandala" transform="translate(232 396)"/>
    <use href="#trishula" transform="translate(320 400)"/>
    <use href="#flower" transform="translate(408 418)"/>
    <use href="#dot" transform="translate(300 360)"/>
    <use href="#star" transform="translate(360 60)"/>
  </g>
</svg>
