<svg xmlns="http://www.w3.org/2000/svg" width="300" height="300" viewBox="0 0 300 300"><defs><g id="wheel"><circle r="6"/><circle r="1.4"/><path d="M0 -6V6M-6 0H6M-4.2 -4.2 4.2 4.2M-4.2 4.2 4.2 -4.2"/></g><g id="lotus"><path d="M0 2C-2 -4 -6 -5 -8 -2M0 2C-1 -5 -3 -7 -4.5 -6.5M0 2V-8M0 2C1 -5 3 -7 4.5 -6.5M0 2C2 -4 6 -5 8 -2"/><path d="M-6 2Q0 5 6 2"/></g><g id="diya"><path d="M-6 1Q0 7 6 1Q3 3 0 3Q-3 3 -6 1Z"/><path d="M0 1Q2.5 -2 0 -7Q-2.5 -2 0 1"/></g><g id="leaf"><path d="M0 8V-9"/><path d="M0 -2Q4 -4 5 -8M0 -2Q-4 -4 -5 -8M0 2Q3.5 0 4.5 -3M0 2Q-3.5 0 -4.5 -3M0 5Q3 4 4 1.5M0 5Q-3 4 -4 1.5"/></g><g id="conch"><path d="M4 6Q10 1 6 -4Q1 -8 -3 -4Q-6 -1 -3 2Q-1 4 1 2Q2.5 0.5 0.8 -0.8"/><circle cx="4.5" cy="4.5" r="1"/></g><g id="flute"><path d="M-10 7 9 -7"/><circle cx="-3" cy="1.4" r="0.8"/><circle cx="0" cy="-0.6" r="0.8"/><circle cx="3" cy="-2.6" r="0.8"/><path d="M9 -7 12 -9M9 -7 11 -4"/></g><g id="feather"><path d="M-7 9Q-1 0 5 -8"/><ellipse cx="6" cy="-9" rx="3" ry="4.5" transform="rotate(30 6 -9)"/><circle cx="6" cy="-9" r="1.6"/></g><g id="temple"><path d="M0 -12L-4 -6H4Z"/><path d="M-4 -6V-2H4V-6"/><path d="M-6 -2H6V8H-6Z"/><path d="M-6 8H6"/><path d="M-2 8V3H2V8"/><path d="M0 -12V-14"/></g><g id="flower"><circle cx="0" cy="-4" r="2"/><circle cx="3.8" cy="-1.2" r="2"/><circle cx="2.4" cy="3.2" r="2"/><circle cx="-2.4" cy="3.2" r="2"/><circle cx="-3.8" cy="-1.2" r="2"/><circle r="1.2"/></g><g id="quatre"><circle cx="0" cy="-2.5" r="1.5"/><circle cx="2.5" cy="0" r="1.5"/><circle cx="0" cy="2.5" r="1.5"/><circle cx="-2.5" cy="0" r="1.5"/></g><g id="dot"><circle r="1.4"/></g></defs><g fill="none" stroke="#bd8a3e" stroke-width="0.9" stroke-linecap="round" stroke-linejoin="round" opacity="0.55"><use href="#wheel" transform="translate(40 34)"/><text x="150" y="30" font-size="14" font-family="Georgia,serif" text-anchor="middle" stroke="none" fill="#bd8a3e">&#2384;</text><use href="#quatre" transform="translate(232 30)"/><use href="#flower" transform="translate(285 34)"/><use href="#conch" transform="translate(72 86)"/><use href="#leaf" transform="translate(150 80) rotate(10)"/><use href="#feather" transform="translate(232 80)"/><use href="#dot" transform="translate(285 90)"/><use href="#diya" transform="translate(30 150)"/><use href="#flute" transform="translate(110 150)"/><use href="#lotus" transform="translate(192 150)"/><use href="#wheel" transform="translate(270 150)"/><use href="#leaf" transform="translate(44 220) rotate(-12)"/><use href="#temple" transform="translate(150 214)"/><text x="232" y="220" font-size="12" font-family="Georgia,serif" text-anchor="middle" stroke="none" fill="#bd8a3e">&#2384;</text><use href="#flower" transform="translate(288 214)"/><use href="#dot" transform="translate(100 120)"/><use href="#dot" transform="translate(200 120)"/><use href="#quatre" transform="translate(150 270)"/><use href="#dot" transform="translate(60 270)"/><use href="#conch" transform="translate(232 272)"/><use href="#lotus" transform="translate(300 90) scale(0.9)"/><use href="#dot" transform="translate(0 120)"/></g></svg>